<svg version="1.1" id="body_chest" xmlns="http://www.w3.org/2000/svg" xmlns:xlink="http://www.w3.org/1999/xlink" x="0px" y="0px" viewBox="0 0 98.5 111.1" style="enable-background:new 0 0 98.5 111.1;" xml:space="preserve">
<style type="text/css">
	.st0{fill:#A9A9A9;}
</style>
<path class="st0" d="M98.5,29.7C98.4,44.2,96,58.5,94.9,73c-0.9,11.8-3.5,22.9-6.5,34.1c-1,3.7-2.1,4-5.4,2.8
	c-5.6-2.1-11.1-4.6-16.2-7.8c-9.7-6.1-20.2-5.3-30.4-2.5c-7.2,1.9-13.9,5.6-19.9,10.3c-2.5,2-3.6,1.4-4.4-1.6
	c-4.3-16.9-8.2-34-10.5-51.2c-1.9-14.5-3.2-29.6,2.9-43.9c1.5-3.4,3.3-6,7-7.2c6.1-1.8,12.1-3.8,18.1-5.8C31.3-0.4,32,0.5,33,1.5
	c2.1,2.3,4.4,4.5,7.1,6.2c7.7,4.7,13.2,4.5,20-1.5c5.2-4.5,10.4-8,17.4-3.7c0.4,0.2,1,0.2,1.4,0.4C96,7.7,99,11.9,98.5,29.7z"/>
</svg>