<svg version="1.1" id="body_foot_R" xmlns="http://www.w3.org/2000/svg" xmlns:xlink="http://www.w3.org/1999/xlink" x="0px" y="0px" viewBox="0 0 248 500" style="enable-background:new 0 0 248 500;" xml:space="preserve">
<style type="text/css">
	.st0{fill:#AAAAAA;}
</style>
<g>
	<path class="st0" d="M188.1,482.2c-2.6,1.9-6.2,0.3-9.6,1.5c-6.6,2.3-13.1-3.5-10.9-10.3c1-3.2,1.3-7-0.9-10.6
		c-1.2-2-1.7-4.6-1.7-7.1c0.1-5.7,0.9-6.6,6.5-6.6c1.2,0,2.5,0.4,3.5-0.1c8.2-3.4,12.2,1.3,15.1,7.8c2.2,4.9,6.7,7.7,9.7,11.9
		c4.6,6.4,2.4,12.1-5.4,13.3C192.6,482.1,190.7,483.4,188.1,482.2z"/>
</g>
</svg>
