<svg version="1.1" id="body_foot_L" xmlns="http://www.w3.org/2000/svg" xmlns:xlink="http://www.w3.org/1999/xlink" x="0px" y="0px" viewBox="0 0 37.2 39.2" style="enable-background:new 0 0 37.2 39.2;" xml:space="preserve">
<style type="text/css">
	.st0{fill:#A9A9A9;}
</style>
<g>
	<path class="st0" d="M23.1,39.1c-4.8,0.4-9.4-1.2-14.1-1.5c-3.5-0.3-7.3-0.8-8.5-4.7c-1.2-3.8,0.5-7.4,3.2-9.9
		c6.2-6,11.6-12.3,13.4-21c0.5-2.2,2-2,3.4-1.9c4.1,0.3,8.3,0.6,12.4,0.9c1.1,0.1,1.9,0.4,2.3,1.5c1.6,5.2,3.7,10.6,0.7,15.9
		c-1.4,2.4-1.6,4.5-1,7.1c0.4,1.6,0.3,3.3,0.3,5c0,6.9-2,8.8-8.9,8.7C25.1,39.1,24.1,39.1,23.1,39.1z"/>
</g>
</svg>
