<svg version="1.1" id="body_hand_L" xmlns="http://www.w3.org/2000/svg" xmlns:xlink="http://www.w3.org/1999/xlink" x="0px" y="0px" viewBox="0 0 42 50.1" style="enable-background:new 0 0 42 50.1;" xml:space="preserve">
<style type="text/css">
	.st0{fill:#A9A9A9;}
</style>
<g>
	<path class="st0" d="M11.5,24.4c-1.9,1.7-2.7,2.3-3.4,3c-2,1.9-4.3,2.7-6.7,1c-2.7-1.9-0.5-3.8,0.2-5.6C2.9,18.8,4.4,15,5.7,11
		c2.6-8.1,6.5-11,15-10.8c1.5,0,3-0.1,4.5,0.1c2.4,0.3,5.8-1.3,7,1c1.9,3.5,3.9,7.1,3.1,11.7C34.1,20,33.9,27,40.2,32.5
		c2.2,1.9,2.8,4.9-0.7,6.4c-2.5,1.1-0.7,2.5-0.8,3.7c-0.2,2.7-0.8,4.8-4,4.3c-1.4-0.2-2,0-2.7,1.2c-1.6,2.6-3.5,2.8-5.6,0.5
		c-0.7-0.8-1.4-1.2-2.5-0.4c-3.4,2.6-5,0.1-6.6-2.4C13.4,39.6,11.1,33,11.5,24.4z"/>
</g>
</svg>
