<svg version="1.1" id="body_hand_R" xmlns="http://www.w3.org/2000/svg" xmlns:xlink="http://www.w3.org/1999/xlink" x="0px" y="0px" viewBox="0 0 41.9 49.8" style="enable-background:new 0 0 41.9 49.8;" xml:space="preserve">
<style type="text/css">
	.st0{fill:#A9A9A9;}
</style>
<g>
	<path class="st0" d="M31.3,25.6c-1.7,2.7-0.8,5.8-1.5,8.6c-1.1,4.7-3.8,8.4-5.9,12.6c-0.2,0.4-0.7,0.7-1,1.1
		c-2.3,3.2-5-1.5-6.9,0.1c-2.6,2.2-4.5,2.7-6.4-0.5c-0.2-0.4-0.7-1.1-0.9-1.1c-5.6,1.3-5.8-1.9-5.2-6c0.1-0.4,0.1-1.2-0.2-1.3
		c-6.3-3.3-2.3-6.1,0.4-9c4.5-4.9,4-11.2,3-16.9C5.9,8.5,8.4,5.1,9.6,1.1c0.4-1.4,2-0.9,3.1-1C17.5,0,22.3-0.2,27.1,1
		c4.1,1,7.1,3.3,8.4,7.6c1.6,5.1,3.5,10,5.5,15c0.6,1.6,1.8,2.9,0.1,4.4c-1.7,1.6-3.6,1.3-5.6,0.5C34,27.8,33.3,25.9,31.3,25.6z"/>
</g>
</svg>
