<svg version="1.1" id="body_lower_leg_L" xmlns="http://www.w3.org/2000/svg" xmlns:xlink="http://www.w3.org/1999/xlink" x="0px" y="0px" viewBox="0 0 37.9 106.3" style="enable-background:new 0 0 37.9 106.3;" xml:space="preserve">
<style type="text/css">
	.st0{fill:#AAAAAA;}
</style>
<g>
	<path class="st0" d="M37.7,24.9c0.4,10.6-2.9,20.1-5.6,29.6c-2.9,10.4-6.2,20.7-8.8,31.1c-1.3,5.3-1.8,10.8-2.4,16.2
		c-0.4,3.2-1.5,4.9-5,4.5c-3.8-0.5-7.6-0.8-11.4-0.9c-2.5,0-3.2-1.1-3-3.4c1.1-16.9-0.3-33.8-1.3-50.7C-0.7,35.1,2.3,19.2,3.4,3.2
		C3.5,0.5,4.3-1.2,7.6,1c8,5.4,15.8,11.1,25.2,13.9C38.5,16.7,38.1,20.9,37.7,24.9z"/>
</g>
</svg>
