<svg version="1.1" id="body_lower_arm_L" xmlns="http://www.w3.org/2000/svg" xmlns:xlink="http://www.w3.org/1999/xlink" x="0px" y="0px" viewBox="0 0 37.4 70.2" style="enable-background:new 0 0 37.4 70.2;" xml:space="preserve">
<style type="text/css">
	.st0{fill:#AAAAAA;}
</style>
<g>
	<path class="st0" d="M10.6,70.1c-0.6,0-1,0-1.3,0c-9.8,0-10.3-0.4-8.4-9.4c2.1-9.9,1.5-20,3.8-29.9C7,21.1,10.9,12,14,2.6
		c0.9-2.7,2.8-3.1,5.1-2.3C24.4,2.2,29.7,4.2,35,6.1c2.5,0.9,2.7,2.2,2.1,4.9c-2.7,11.7-4.7,23.5-8.4,35c-2.5,7.8-7,14.6-10.2,22
		C17,71.3,13.1,69.8,10.6,70.1z"/>
</g>
</svg>
