<svg version="1.1" id="body_lower_arm_R" xmlns="http://www.w3.org/2000/svg" xmlns:xlink="http://www.w3.org/1999/xlink" x="0px" y="0px" viewBox="0 0 36.1 62.1" style="enable-background:new 0 0 36.1 62.1;" xml:space="preserve">
<style type="text/css">
	.st0{fill:#AAAAAA;}
</style>
<g>
	<path class="st0" d="M27.2,62.1c-8.8,0-8.1-0.3-12.1-8.1c-4.9-9.4-9-19-11.3-29.3c-1.1-4.8-1.6-9.7-3.4-14.4C-0.5,8,0.2,6,2.9,5.2
		c5.7-1.6,11.4-3.3,17.1-5c2.4-0.7,4.1,0,5.1,2.5c3.4,8.4,6,17,7.1,26.1c1,8.5,1.9,17,3.2,25.5c1.2,7.8,1.5,7.7-6.2,7.7
		C28.6,62.1,27.9,62.1,27.2,62.1z"/>
</g>
</svg>
