<svg version="1.1" id="body_pelvis" xmlns="http://www.w3.org/2000/svg" xmlns:xlink="http://www.w3.org/1999/xlink" x="0px" y="0px" viewBox="0 0 74.3 46.8" style="enable-background:new 0 0 74.3 46.8;" xml:space="preserve">
<style type="text/css">
	.st0{fill:#AAAAAA;}
</style>
<g>
	<path class="st0" d="M36.6,46.7c-10.8,0-21.7-0.1-32.5,0.1c-3,0-4.1-0.8-4.1-3.9c0.2-8.3,0.2-16.7,0-25c-0.1-4.8,3.9-6.3,6.6-7.8
		C16.8,4.2,27.2-0.9,39.9,0.1c8.6,0.7,14.7,5.5,21.8,8.7c1.7,0.7,3.2,1.8,4.9,2.5c7.6,3.1,7.6,3.1,7.6,11.1c0,6.5-0.1,13,0.1,19.5
		c0.1,3.6-0.9,5-4.8,4.9C58.5,46.6,47.5,46.7,36.6,46.7z"/>
</g>
</svg>
