<svg version="1.1" id="body_upper_leg_R" xmlns="http://www.w3.org/2000/svg" xmlns:xlink="http://www.w3.org/1999/xlink" x="0px" y="0px" viewBox="0 0 58 119.9" style="enable-background:new 0 0 58 119.9;" xml:space="preserve">
<style type="text/css">
	.st0{fill:#A9A9A9;}
</style>
<g>
	<path class="st0" d="M0.1,24.3c0-7.2,0.1-13.7-0.1-20.2C-0.1,1.2,0.7,0,3.9,0C14,0.2,24.2,0.2,34.3,0c2.8,0,3.8,1.1,4.5,3.5
		c5.6,19.7,13.6,38.8,16.7,59.2c2,13.5,2.6,27,2.5,40.7c0,2.6-1.4,3.9-3.5,4.8c-9,4.2-19,6.1-27.6,11.3c-1.4,0.8-2.4,0.5-3-1.3
		C18.9,103.1,11,89,7.7,73.3C6.5,67.5,5,61.7,3,56.1C-1,45.5,0.3,34.5,0.1,24.3z"/>
</g>
</svg>
