<svg version="1.1" id="body_upper_leg_L" xmlns="http://www.w3.org/2000/svg" xmlns:xlink="http://www.w3.org/1999/xlink" x="0px" y="0px" viewBox="0 0 57.3 121.2" style="enable-background:new 0 0 57.3 121.2;" xml:space="preserve">
<style type="text/css">
	.st0{fill:#A9A9A9;}
</style>
<g>
	<path class="st0" d="M57,26.1c2.1,26.7-8.1,51.6-17.4,76.6c-2,5.5-4.8,10.6-5.8,16.4c-0.4,2.5-1.5,2.3-3.4,1.6
		c-10.2-4-19.2-9.8-28.3-15.7c-1.9-1.2-2.1-2.7-2.1-4.6c-0.5-25,2.4-49.3,11.7-72.8c3-7.5,4.5-15.6,7-23.4c1-3.1,2.3-4.3,5.6-4.2
		c9.5,0.2,19,0.2,28.5,0C56,0,57.2,0.8,57.1,4.2C56.9,11.2,57,18.2,57,26.1z"/>
</g>
</svg>
